<svg xmlns="http://www.w3.org/2000/svg" xmlns:xlink="http://www.w3.org/1999/xlink" id="eWSegwi980T1" viewBox="0 0 136 193"><style><![CDATA[#eWSegwi980T2_to {animation: eWSegwi980T2_to__to 3000ms linear infinite normal forwards}@keyframes eWSegwi980T2_to__to { 0% {transform: translate(56.30475px,112.687199px);animation-timing-function: cubic-bezier(0.42,0,1,1)} 50% {transform: translate(50px,122px);animation-timing-function: cubic-bezier(0.42,0,1,1)} 100% {transform: translate(56.30475px,112.687199px)}} #eWSegwi980T3_to {animation: eWSegwi980T3_to__to 3000ms linear infinite normal forwards}@keyframes eWSegwi980T3_to__to { 0% {transform: translate(66.92835px,128.785503px);animation-timing-function: cubic-bezier(0.42,0,1,1)} 50% {transform: translate(70px,126px);animation-timing-function: cubic-bezier(0.42,0,1,1)} 100% {transform: translate(66.92835px,128.785503px)}} #eWSegwi980T4_to {animation: eWSegwi980T4_to__to 3000ms linear infinite normal forwards}@keyframes eWSegwi980T4_to__to { 0% {transform: translate(92.587002px,136.898502px)} 50% {transform: translate(91px,138px);animation-timing-function: cubic-bezier(0.42,0,0.58,1)} 100% {transform: translate(92.587002px,136.898502px)}} #eWSegwi980T8_tr {animation: eWSegwi980T8_tr__tr 3000ms linear infinite normal forwards}@keyframes eWSegwi980T8_tr__tr { 0% {transform: translate(67.578949px,47.0385px) rotate(0deg)} 60% {transform: translate(67.578949px,47.0385px) rotate(-29deg);animation-timing-function: cubic-bezier(0.42,0,0.58,1)} 100% {transform: translate(67.578949px,47.0385px) rotate(0deg)}}]]></style><g id="eWSegwi980T2_to" transform="translate(56.30475,112.687199)"><path d="M86.7091,81.5924c-13.2635,5.6208-20.194,16.5205-26.7212,27.7916-8.1472,14.069-15.6661,28.715-34.0875,34.398" transform="translate(-56.30475,-112.687199)" fill="none" stroke="#fff" stroke-width="5" stroke-linecap="round" stroke-linejoin="round" stroke-miterlimit="1.5"></path></g><g id="eWSegwi980T3_to" transform="translate(66.92835,128.785503)"><path d="M115.098,89.04c-15.4096,3.7861-28.0589,13.465-36.6136,27.627-4.4758,7.41-7.4316,15.6-12.4451,22.721-11.296,16.043-28.6727,28.005-47.2806,29.143" transform="translate(-66.92835,-128.785503)" fill="none" stroke="#fff" stroke-width="5" stroke-linecap="round" stroke-linejoin="round" stroke-miterlimit="1.5"></path></g><g id="eWSegwi980T4_to" transform="translate(92.587002,136.898502)"><path d="M71.191,161.703c6.0183-4.253,11.4703-9.334,15.398-15.802c7.8218-12.882,12.5725-27.86,27.394-33.807" transform="translate(-92.587002,-136.898502)" fill="none" stroke="#fff" stroke-width="5" stroke-linecap="round" stroke-linejoin="round" stroke-miterlimit="1.5"></path></g><path d="M103.401,36.4244c5.509-2.0163,10.947-4.1883,16.392-6.44" fill="none" stroke="#fff" stroke-width="5" stroke-linecap="round" stroke-linejoin="round" stroke-miterlimit="1.5"></path><path d="M95.6327,26.1506c5.2103-4.188,9.7653-9.1728,14.5913-13.8381" fill="none" stroke="#fff" stroke-width="5" stroke-linecap="round" stroke-linejoin="round" stroke-miterlimit="1.5"></path><path d="M85.0987,18.9335c2.2279-5.0155,4.0731-10.39872,4.8081-15.82865" fill="none" stroke="#fff" stroke-width="5" stroke-linecap="round" stroke-linejoin="round" stroke-miterlimit="1.5"></path><g id="eWSegwi980T8_tr" transform="translate(67.578949,47.0385) rotate(0)"><g transform="translate(-67.578949,-47.0385)"><path d="M59.0654,39.1497c5.6444,5.6424,11.6452,10.9564,17.0271,16.8605" fill="none" stroke="#fff" stroke-width="5" stroke-linecap="round" stroke-linejoin="round" stroke-miterlimit="1.5"></path><path d="M59.0654,56.2054C63.8067,49.27,69.7018,43.4088,75.8218,37.8716" transform="translate(.2707 0)" fill="none" stroke="#fff" stroke-width="5" stroke-linecap="round" stroke-linejoin="round" stroke-miterlimit="1.5"></path></g></g></svg>